<svg height="512pt" viewBox="0 0 512.00061 512" width="512pt" xmlns="http://www.w3.org/2000/svg"><path d="m47.21875 280.777344-38.554688 17.324218c-7.507812 3.492188-10.761718 12.417969-7.25 19.929688 3.453126 7.417969 12.347657 10.792969 19.929688 7.25l46.175781-20.746094zm0 0" fill="#3e5959"/><path d="m213.898438 503.335938 17.324218-38.550782-23.730468-20.359375-20.773438 46.230469c-3.546875 7.59375-.160156 16.484375 7.25 19.929688 7.511719 3.511718 16.441406.257812 19.929688-7.25zm0 0" fill="#384949"/><path d="m278.421875 362.976562c-5.9375 5.941407-15.484375 5.730469-21.210937 0l-108.1875-108.183593c-5.726563-5.730469-5.9375-15.277344 0-21.214844 5.941406-5.941406 15.484374-5.726563 21.214843 0l108.183594 108.1875c5.730469 5.726563 5.941406 15.273437 0 21.210937zm0 0" fill="#3e5959"/><path d="m257.210938 362.976562-54.09375-54.09375 21.210937-21.210937 54.09375 54.09375c5.726563 5.726563 5.941406 15.273437 0 21.210937-5.9375 5.941407-15.484375 5.730469-21.210937 0zm0 0" fill="#384949"/><path d="m135.445312 495.347656c-26.9375-11.242187-50.910156-27.574218-71.0625-47.730468-20.152343-20.152344-36.488281-44.121094-47.730468-71.0625-3.394532-7.636719.210937-16.335938 7.847656-19.730469 7.851562-3.179688 16.546875.425781 19.730469 7.851562 9.96875 23.546875 23.96875 44.335938 41.363281 61.730469 17.398438 17.394531 38.1875 31.394531 61.730469 41.367188 7.425781 3.179687 11.03125 11.875 7.851562 19.726562-3.394531 7.636719-12.09375 11.242188-19.730469 7.847656zm0 0" fill="#b5baf3"/><path d="m343.5 109.855469-262.050781 122.1875c-14.542969 6.777343-25.554688 18.800781-31.023438 33.863281-1.773437 4.855469-2.722656 9.835938-3.207031 14.871094-.363281 3.792968-.539062 7.609375-.171875 11.457031 1.015625 10.082031 11.363281 15.964844 20.472656 12.300781.265625-.109375 293.894531-136.832031 293.894531-136.832031zm0 0" fill="#ff7816"/><path d="m279.945312 430.5625 136.371094-292.449219-59.316406-14.757812s-149.410156 320.824219-149.507812 321.070312c-3.742188 9.230469 2.273437 19.5625 12.304687 20.539063 3.835937.363281 7.644531.183594 11.425781-.179688 5.035156-.484375 10.019532-1.429687 14.863282-3.199218 15.070312-5.480469 27.097656-16.488282 33.859374-31.023438zm0 0" fill="#ff4b00"/><path d="m503.25 51.175781-66.789062 66.789063-42.425782-42.425782 66.789063-66.789062c11.667969-11.667969 30.757812-11.667969 42.425781 0s11.667969 30.761719 0 42.425781zm0 0" fill="#3e5959"/><path d="m436.460938 117.964844-21.210938-21.210938 88-88.003906c11.667969 11.667969 11.667969 30.757812 0 42.425781zm0 0" fill="#384949"/><path d="m135.445312 495.347656c-26.9375-11.242187-50.910156-27.574218-71.0625-47.730468l21.210938-21.210938c17.398438 17.394531 38.1875 31.394531 61.730469 41.367188 7.425781 3.179687 11.03125 11.875 7.851562 19.726562-3.394531 7.636719-12.09375 11.242188-19.730469 7.847656zm0 0" fill="#979fef"/><path d="m245.542969 287.671875-42.425781 42.425781c-5.941407 5.9375-15.273438 5.941406-21.214844 0-5.9375-5.941406-5.9375-15.273437 0-21.214844l42.425781-42.425781c5.941406-5.9375 15.273437-5.9375 21.214844 0 5.941406 5.941407 5.941406 15.273438 0 21.214844zm0 0" fill="#3e5959"/><path d="m245.542969 287.671875-42.425781 42.425781c-5.941407 5.9375-15.273438 5.941406-21.214844 0l63.640625-63.640625c5.941406 5.941407 5.941406 15.273438 0 21.214844zm0 0" fill="#384949"/><path d="m436.460938 75.539062c-29.273438-29.273437-76.792969-29.273437-106.066407 0-29.273437 29.273438-29.273437 76.792969 0 106.066407 29.273438 29.273437 76.792969 29.273437 106.066407 0 29.273437-29.273438 29.277343-76.792969 0-106.066407zm0 0" fill="#deecf1"/><path d="m436.460938 181.605469c-29.273438 29.273437-76.792969 29.273437-106.066407 0l106.066407-106.066407c29.277343 29.273438 29.277343 76.792969 0 106.066407zm0 0" fill="#c6e2e7"/><path d="m415.25 96.753906c-17.609375-17.609375-46.035156-17.609375-63.640625 0-17.605469 17.605469-17.609375 46.03125 0 63.636719 17.605469 17.609375 46.03125 17.609375 63.640625 0 17.605469-17.605469 17.605469-46.03125 0-63.636719zm0 0" fill="#a8d3d8"/><path d="m415.25 160.390625c-17.609375 17.609375-46.035156 17.609375-63.640625 0l63.640625-63.636719c17.605469 17.605469 17.605469 46.03125 0 63.636719zm0 0" fill="#8ebac5"/><path d="m394.035156 139.179688c-5.9375 5.9375-15.273437 5.9375-21.210937 0-5.941407-5.941407-5.941407-15.273438 0-21.214844 5.9375-5.9375 15.269531-5.9375 21.210937 0 5.941406 5.941406 5.941406 15.273437 0 21.214844zm0 0" fill="#3e5959"/><path d="m394.035156 139.179688c-5.9375 5.9375-15.273437 5.9375-21.210937 0l21.210937-21.214844c5.941406 5.941406 5.941406 15.273437 0 21.214844zm0 0" fill="#384949"/></svg>