<?xml version="1.0" encoding="UTF-8" standalone="no"?>
<svg
   xmlns:dc="http://purl.org/dc/elements/1.1/"
   xmlns:cc="http://creativecommons.org/ns#"
   xmlns:rdf="http://www.w3.org/1999/02/22-rdf-syntax-ns#"
   xmlns:svg="http://www.w3.org/2000/svg"
   xmlns="http://www.w3.org/2000/svg"
   xmlns:sodipodi="http://sodipodi.sourceforge.net/DTD/sodipodi-0.dtd"
   xmlns:inkscape="http://www.inkscape.org/namespaces/inkscape"
   height="512pt"
   viewBox="-16 0 512 512"
   width="512pt"
   version="1.1"
   id="svg22"
   sodipodi:docname="access.svg"
   inkscape:version="0.92.4 (33fec40, 2019-01-16)">
  <metadata
     id="metadata28">
    <rdf:RDF>
      <cc:Work
         rdf:about="">
        <dc:format>image/svg+xml</dc:format>
        <dc:type
           rdf:resource="http://purl.org/dc/dcmitype/StillImage" />
      </cc:Work>
    </rdf:RDF>
  </metadata>
  <defs
     id="defs26" />
  <sodipodi:namedview
     pagecolor="#ffffff"
     bordercolor="#666666"
     borderopacity="1"
     objecttolerance="10"
     gridtolerance="10"
     guidetolerance="10"
     inkscape:pageopacity="0"
     inkscape:pageshadow="2"
     inkscape:window-width="1920"
     inkscape:window-height="1025"
     id="namedview24"
     showgrid="false"
     inkscape:zoom="0.34570313"
     inkscape:cx="341.33333"
     inkscape:cy="341.33333"
     inkscape:window-x="0"
     inkscape:window-y="27"
     inkscape:window-maximized="1"
     inkscape:current-layer="svg22" />
  <path
     d="m135 0h-60c-24.902344 0-45 20.097656-45 45v31c0 8.398438 6.597656 15 15 15h120c8.402344 0 15-6.601562 15-15v-31c0-24.902344-20.097656-45-45-45zm0 0"
     fill="#deecf1"
     id="path2"
     style="fill:#b3b3b3" />
  <path
     d="m165 91h-60v-91h30c24.902344 0 45 20.097656 45 45v31c0 8.398438-6.597656 15-15 15zm0 0"
     fill="#a8d3d8"
     id="path4"
     style="fill:#cccccc" />
  <path
     d="m195 196v-60h255c16.539062 0 30 13.460938 30 30s-13.460938 30-30 30zm0 0"
     fill="#a8d3d8"
     id="path6"
     style="fill:#333333" />
  <path
     d="m366.210938 409.207031c-5.667969 5.671875-13.199219 8.789063-21.210938 8.789063s-15.542969-3.117188-21.210938-8.789063l-128.789062-128.789062v-84.84375l171.210938 171.210937c11.6875 11.691406 11.6875 30.734375 0 42.421875zm0 0"
     fill="#8ebac5"
     id="path8"
     style="fill:#333333" />
  <path
     d="m210 271v226c0 8.398438-6.597656 15-15 15h-180c-8.402344 0-15-6.601562-15-15v-226l38.402344-30h139.796875zm0 0"
     fill="#4a696f"
     id="path10"
     style="fill:#000000" />
  <path
     d="m210 271v226c0 8.398438-6.597656 15-15 15h-90v-271h73.199219zm0 0"
     fill="#384949"
     id="path12"
     style="fill:#000000" />
  <path
     d="m195 61h-180c-8.402344 0-15 6.597656-15 15v195h210v-195c0-8.402344-6.597656-15-15-15zm0 0"
     fill="#73bcff"
     id="path14"
     style="fill:#cccccc" />
  <path
     d="m210 76v195h-105v-210h90c8.402344 0 15 6.597656 15 15zm0 0"
     fill="#0095ff"
     id="path16"
     style="fill:#e6e6e6" />
  <path
     d="m135 121h-60c-8.402344 0-15 6.597656-15 15v60c0 8.398438 6.597656 15 15 15h60c8.402344 0 15-6.601562 15-15v-60c0-8.402344-6.597656-15-15-15zm0 0"
     fill="#4a696f"
     id="path18"
     style="fill:#ffffff" />
  <path
     d="m135 211h-30v-90h30c8.402344 0 15 6.597656 15 15v60c0 8.398438-6.597656 15-15 15zm0 0"
     fill="#384949"
     id="path20"
     style="fill:#999999" />
</svg>
