<?xml version="1.0" encoding="UTF-8" standalone="no"?>
<svg
   xmlns:dc="http://purl.org/dc/elements/1.1/"
   xmlns:cc="http://creativecommons.org/ns#"
   xmlns:rdf="http://www.w3.org/1999/02/22-rdf-syntax-ns#"
   xmlns:svg="http://www.w3.org/2000/svg"
   xmlns="http://www.w3.org/2000/svg"
   xmlns:sodipodi="http://sodipodi.sourceforge.net/DTD/sodipodi-0.dtd"
   xmlns:inkscape="http://www.inkscape.org/namespaces/inkscape"
   height="511pt"
   viewBox="1 0 511 511.99945"
   width="511pt"
   version="1.1"
   id="svg42"
   sodipodi:docname="architect.svg"
   inkscape:version="0.92.4 (33fec40, 2019-01-16)">
  <metadata
     id="metadata48">
    <rdf:RDF>
      <cc:Work
         rdf:about="">
        <dc:format>image/svg+xml</dc:format>
        <dc:type
           rdf:resource="http://purl.org/dc/dcmitype/StillImage" />
      </cc:Work>
    </rdf:RDF>
  </metadata>
  <defs
     id="defs46" />
  <sodipodi:namedview
     pagecolor="#ffffff"
     bordercolor="#666666"
     borderopacity="1"
     objecttolerance="10"
     gridtolerance="10"
     guidetolerance="10"
     inkscape:pageopacity="0"
     inkscape:pageshadow="2"
     inkscape:window-width="1920"
     inkscape:window-height="1025"
     id="namedview44"
     showgrid="false"
     inkscape:zoom="0.4898548"
     inkscape:cx="560.13981"
     inkscape:cy="508.77052"
     inkscape:window-x="0"
     inkscape:window-y="27"
     inkscape:window-maximized="1"
     inkscape:current-layer="svg42" />
  <path
     d="m502.5 512c-.652344 0-1.3125-.070312-1.953125-.199219-.636719-.121093-1.269531-.320312-1.867187-.570312-.609376-.25-1.191407-.5625-1.730469-.921875-.550781-.359375-1.058594-.777344-1.519531-1.238282-.460938-.460937-.882813-.972656-1.242188-1.519531-.359375-.542969-.667969-1.121093-.917969-1.722656-.25-.609375-.449219-1.238281-.570312-1.878906-.128907-.640625-.199219-1.300781-.199219-1.949219 0-.652344.070312-1.308594.199219-1.949219.121093-.640625.320312-1.269531.570312-1.882812.25-.597657.558594-1.179688.917969-1.71875.359375-.550781.78125-1.058594 1.242188-1.519531.460937-.460938.96875-.878907 1.519531-1.238282.539062-.363281 1.121093-.671875 1.730469-.921875.597656-.25 1.230468-.449219 1.867187-.570312 1.292969-.257813 2.613281-.257813 3.902344 0 .640625.121093 1.269531.320312 1.878906.570312.601563.25 1.179687.558594 1.71875.921875.550781.359375 1.0625.777344 1.523437 1.238282.457032.460937.878907.96875 1.238282 1.519531.359375.539062.671875 1.121093.921875 1.71875.25.613281.449219 1.242187.578125 1.882812s.191406 1.296875.191406 1.949219c0 .648438-.0625 1.308594-.191406 1.949219s-.328125 1.269531-.578125 1.878906c-.25.601563-.5625 1.179687-.921875 1.722656-.359375.546875-.78125 1.058594-1.238282 1.519531-1.863281 1.859376-4.441406 2.929688-7.070312 2.929688zm0 0"
     id="path2" />
  <path
     d="m43.300781 268.4375v62.035156c0 45.246094 30.210938 74.703125 71.558594 86.773438v23.824218h55.847656v-23.824218c41.347657-12.070313 71.554688-41.527344 71.554688-86.773438v-62.035156c-65.550781-14.257812-133.40625-14.257812-198.960938 0zm0 0"
     fill="#fcc8a4"
     id="path4"
     style="fill:#ececec" />
  <path
     d="m128.238281 317.773438c0 16.636718-13.488281 30.121093-30.121093 30.121093-16.636719 0-30.121094-13.484375-30.121094-30.121093 0-16.632813 13.484375-30.121094 30.121094-30.121094 16.632812 0 30.121093 13.488281 30.121093 30.121094zm0 0"
     fill="#a6d3ff"
     id="path6"
     style="fill:#ffffff" />
  <path
     d="m217.570312 317.773438c0 16.636718-13.488281 30.121093-30.121093 30.121093-16.636719 0-30.121094-13.484375-30.121094-30.121093 0-16.632813 13.484375-30.121094 30.121094-30.121094 16.632812 0 30.121093 13.488281 30.121093 30.121094zm0 0"
     fill="#a6d3ff"
     id="path8"
     style="fill:#ffffff" />
  <path
     d="m31.417969 233.691406v37.496094c73.164062-17.925781 149.566406-17.925781 222.726562 0v-37.496094c-73.332031-16.402344-149.390625-16.402344-222.726562 0zm0 0"
     fill="#fec357"
     id="path10"
     style="fill:#ffffff" />
  <path
     d="m242.421875 231.214844v-9.589844c0-41.558594-33.691406-75.25-75.25-75.25h-48.78125c-41.558594 0-75.25 33.691406-75.25 75.25v9.589844c65.78125-13.101563 133.503906-13.101563 199.28125 0zm0 0"
     fill="#f6e27d"
     id="path12"
     style="fill:#ffffff" />
  <path
     d="m164.875 221.867188v-75.492188h-44.183594v75.492188c14.71875-.636719 29.460938-.636719 44.183594 0zm0 0"
     fill="#fec357"
     id="path14"
     style="fill:#f9f9f9" />
  <path
     d="m275.066406 469.289062c0-15.578124-12.632812-28.21875-28.21875-28.21875h-208.128906c-15.589844 0-28.21875 12.640626-28.21875 28.21875v32.710938h264.566406zm0 0"
     fill="#92abd8"
     id="path16"
     style="fill:#e6e6e6" />
  <path
     d="m459.496094 492h-174.429688v-22.710938c0-21.074218-17.144531-38.21875-38.21875-38.21875h-66.140625v-6.527343c19.921875-6.960938 36.691407-17.816407 48.804688-31.652344 14.882812-17 22.75-38.582031 22.75-62.417969v-2.808594c4.8125-.722656 8.5-4.875 8.5-9.890624 0-5.011719-3.6875-9.164063-8.5-9.886719v-26.878907c.625.121094 1.253906.179688 1.882812.179688 2.214844 0 4.394531-.738281 6.171875-2.132812 2.417969-1.894532 3.828125-4.796876 3.828125-7.867188v-37.496094c0-4.679687-3.25-8.734375-7.816406-9.757812-1.300781-.289063-2.601563-.574219-3.90625-.855469v-1.453125c0-47.007812-38.242187-85.25-85.25-85.25h-48.78125c-47.007813 0-85.25 38.242188-85.25 85.25v1.453125c-1.300781.28125-2.605469.566406-3.902344.855469-4.570312 1.023437-7.820312 5.078125-7.820312 9.757812v37.496094c0 3.070312 1.414062 5.972656 3.828125 7.867188 2.28125 1.789062 5.222656 2.496093 8.054687 1.953124v26.878907c-4.808593.722656-8.5 4.875-8.5 9.886719 0 5.015624 3.691407 9.167968 8.5 9.890624v2.808594c0 23.835938 7.867188 45.417969 22.75 62.417969 12.117188 13.835937 28.886719 24.691406 48.808594 31.652344v6.527343h-66.140625c-21.074219 0-38.21875 17.144532-38.21875 38.21875v32.710938c0 5.523438 4.476562 10 10 10h448.996094c5.523437 0 10-4.476562 10-10s-4.476563-10-10-10zm-233.1875-184.226562c-4.457032-17.300782-20.1875-30.121094-38.859375-30.121094s-34.40625 12.824218-38.859375 30.121094h-11.613282c-4.453124-17.300782-20.1875-30.121094-38.859374-30.121094-18.671876 0-34.40625 12.824218-38.859376 30.121094h-5.957031v-31.199219c58.910157-11.699219 120.050781-11.703125 178.960938 0v31.199219zm-18.742188 10c0 11.097656-9.023437 20.121093-20.117187 20.121093-11.097657 0-20.121094-9.023437-20.121094-20.121093 0-11.09375 9.023437-20.121094 20.121094-20.121094 11.09375 0 20.117187 9.027344 20.117187 20.121094zm-89.328125 0c0 11.097656-9.027343 20.121093-20.121093 20.121093s-20.121094-9.023437-20.121094-20.121093c0-11.09375 9.027344-20.121094 20.121094-20.121094s20.121093 9.027344 20.121093 20.121094zm-76.820312-59.15625v-16.847657c66.496093-13.738281 136.230469-13.738281 202.726562 0v16.847657c-33.289062-7.210938-67.324219-10.816407-101.363281-10.816407-34.035156 0-68.074219 3.605469-101.363281 10.816407zm190.960937-39.457032c-19.117187-3.347656-38.296875-5.625-57.503906-6.820312v-55.511719c31.5625 3.726563 56.296875 30.074219 57.503906 62.332031zm-77.503906-62.785156v55.105469c-4.03125-.09375-8.0625-.140625-12.09375-.140625s-8.058594.046875-12.089844.140625v-55.105469zm-44.183594.453125v55.511719c-19.207031 1.195312-38.386718 3.472656-57.503906 6.820312 1.207031-32.257812 25.941406-58.605468 57.503906-62.332031zm6.96875 250.820313c-40.902344-11.941407-64.359375-40.070313-64.359375-77.175782v-2.699218h5.957031c4.453126 17.300781 20.1875 30.121093 38.859376 30.121093 18.671874 0 34.40625-12.820312 38.859374-30.121093h11.613282c4.453125 17.300781 20.1875 30.121093 38.859375 30.121093s34.402343-12.820312 38.859375-30.121093h5.953125v2.699218c0 37.105469-23.457031 65.234375-64.355469 77.175782-4.269531 1.246093-7.199219 5.15625-7.199219 9.597656v13.824218h-35.847656v-13.824218c0-4.441406-2.933594-8.351563-7.199219-9.597656zm-97.160156 84.351562v-22.710938c0-10.042968 8.171875-18.21875 18.21875-18.21875h208.128906c10.042969 0 18.21875 8.175782 18.21875 18.21875v22.710938zm0 0"
     id="path18" />
  <path
     d="m502.289062 121.972656c0-62.261718-50.925781-112.632812-113.410156-111.753906-58.851562.832031-109.117187 50.886719-110.160156 109.722656-.84375 47.519532 27.988281 88.410156 69.195312 105.394532v19.738281h85.160157v-19.738281c40.621093-16.742188 69.214843-56.710938 69.214843-103.363282zm0 0"
     fill="#f6e27d"
     id="path20"
     style="fill:#ffffff" />
  <path
     d="m357.230469 245.078125h66.53125v31.957031h-66.53125zm0 0"
     fill="#92abd8"
     id="path22"
     style="fill:#f9f9f9" />
  <path
     d="m364.148438 277.035156h52.695312v30.53125h-52.695312zm0 0"
     fill="#8e8d9b"
     id="path24"
     style="fill:#ffffff" />
  <path
     d="m476.015625 35.277344c-23.398437-23.070313-54.382813-35.503906-87.277344-35.054688-31.074219.4375-60.792969 13.230469-83.675781 36.023438-22.882812 22.789062-35.792969 52.453125-36.34375 83.519531-.445312 25.027344 6.652344 49.195313 20.519531 69.890625 12.25 18.28125 28.984375 32.753906 48.675781 42.171875v13.25c0 5.292969 4.113282 9.625 9.316407 9.976563v21.980468c0 4.449219 2.902343 8.21875 6.917969 9.519532v21.011718c0 5.523438 4.476562 10 10 10h52.695312c5.519531 0 10-4.476562 10-10v-21.011718c4.011719-1.300782 6.917969-5.070313 6.917969-9.515626v-21.984374c5.203125-.351563 9.3125-4.683594 9.3125-9.976563v-13.246094c42.265625-20.1875 69.214843-62.597656 69.214843-109.855469 0-32.847656-12.882812-63.636718-36.273437-86.699218zm-62.253906 231.757812h-46.535157v-11.957031h46.535157zm-6.917969 30.53125h-32.695312v-10.53125h32.695312zm22.421875-81.476562c-3.746094 1.546875-6.191406 5.195312-6.191406 9.246094v9.742187h-65.160157v-9.742187c0-4.050782-2.445312-7.699219-6.191406-9.246094-39.023437-16.085938-63.757812-53.753906-63.007812-95.96875.949218-53.398438 46.882812-99.148438 100.304687-99.902344 27.519531-.375 53.398438 10.019531 72.953125 29.296875 19.550782 19.277344 30.316406 45.011719 30.316406 72.457031 0 41.394532-24.738281 78.335938-63.023437 94.117188zm0 0"
     id="path26" />
  <path
     d="m241.652344 80.039062c-.867188 0-1.75-.113281-2.628906-.351562l-16.03125-4.363281c-5.332032-1.449219-8.476563-6.945313-7.023438-12.277344 1.449219-5.328125 6.945312-8.46875 12.273438-7.023437l16.03125 4.363281c5.328124 1.453125 8.472656 6.949219 7.023437 12.277343-1.210937 4.449219-5.242187 7.375-9.644531 7.375zm0 0"
     id="path28" />
  <path
     d="m234.539062 145.5c-3.46875 0-6.84375-1.8125-8.6875-5.039062-2.746093-4.792969-1.082031-10.902344 3.710938-13.644532l14.421875-8.253906c4.796875-2.742188 10.90625-1.078125 13.648437 3.714844 2.742188 4.792968 1.078126 10.902344-3.714843 13.648437l-14.421875 8.25c-1.566406.894531-3.273438 1.324219-4.957032 1.324219zm0 0"
     id="path30" />
  <path
     d="m276.945312 34.425781c-3.472656 0-6.84375-1.808593-8.691406-5.035156l-8.25-14.421875c-2.742187-4.796875-1.078125-10.90625 3.714844-13.648438 4.792969-2.742187 10.902344-1.078124 13.644531 3.714844l8.25 14.421875c2.742188 4.792969 1.082031 10.902344-3.710937 13.644531-1.566406.898438-3.273438 1.324219-4.957032 1.324219zm0 0"
     id="path32" />
  <path
     d="m406.742188 151.667969h-32.496094l-10-102.714844h52.496094zm0 0"
     fill="#92e0c0"
     id="path34"
     style="fill:#cccccc" />
  <path
     d="m406.742188 161.667969h-32.496094c-5.148438 0-9.453125-3.910157-9.953125-9.03125l-10-102.714844c-.273438-2.808594.652343-5.597656 2.546875-7.6875 1.894531-2.089844 4.585937-3.28125 7.40625-3.28125h52.5c2.820312 0 5.507812 1.191406 7.40625 3.28125 1.894531 2.089844 2.820312 4.878906 2.546875 7.6875l-10.003907 102.714844c-.5 5.121093-4.804687 9.03125-9.953124 9.03125zm-23.421876-20h14.347657l8.054687-82.714844h-30.457031zm0 0"
     id="path36" />
  <path
     d="m374.246094 186.234375h32.496094v27.554687h-32.496094zm0 0"
     fill="#92e0c0"
     id="path38"
     style="fill:#ffffff" />
  <path
     d="m406.742188 223.789062h-32.496094c-5.523438 0-10-4.476562-10-10v-27.554687c0-5.523437 4.476562-10 10-10h32.496094c5.523437 0 10 4.476563 10 10v27.554687c0 5.523438-4.476563 10-10 10zm-22.496094-20h12.496094v-7.554687h-12.496094zm0 0"
     id="path40" />
</svg>
