<?xml version="1.0" encoding="UTF-8" standalone="no"?>
<svg
   xmlns:dc="http://purl.org/dc/elements/1.1/"
   xmlns:cc="http://creativecommons.org/ns#"
   xmlns:rdf="http://www.w3.org/1999/02/22-rdf-syntax-ns#"
   xmlns:svg="http://www.w3.org/2000/svg"
   xmlns="http://www.w3.org/2000/svg"
   xmlns:sodipodi="http://sodipodi.sourceforge.net/DTD/sodipodi-0.dtd"
   xmlns:inkscape="http://www.inkscape.org/namespaces/inkscape"
   height="480pt"
   viewBox="0 0 480 480.00002"
   width="480pt"
   version="1.1"
   id="svg74"
   sodipodi:docname="checklist.svg"
   inkscape:version="0.92.4 (33fec40, 2019-01-16)">
  <metadata
     id="metadata80">
    <rdf:RDF>
      <cc:Work
         rdf:about="">
        <dc:format>image/svg+xml</dc:format>
        <dc:type
           rdf:resource="http://purl.org/dc/dcmitype/StillImage" />
      </cc:Work>
    </rdf:RDF>
  </metadata>
  <defs
     id="defs78" />
  <sodipodi:namedview
     pagecolor="#ffffff"
     bordercolor="#666666"
     borderopacity="1"
     objecttolerance="10"
     gridtolerance="10"
     guidetolerance="10"
     inkscape:pageopacity="0"
     inkscape:pageshadow="2"
     inkscape:window-width="1920"
     inkscape:window-height="1025"
     id="namedview76"
     showgrid="false"
     inkscape:zoom="1.0429825"
     inkscape:cx="443.33676"
     inkscape:cy="392.61673"
     inkscape:window-x="0"
     inkscape:window-y="27"
     inkscape:window-maximized="1"
     inkscape:current-layer="g34" />
  <path
     d="m288 440h-256c-13.253906 0-24-10.746094-24-24v-336c0-13.253906 10.746094-24 24-24h256c13.253906 0 24 10.746094 24 24v336c0 13.253906-10.746094 24-24 24zm0 0"
     fill="#e3584b"
     id="path2"
     style="fill:#cccccc" />
  <path
     d="m40 408h240v-320h-240zm0 0"
     fill="#4398d1"
     id="path4"
     style="fill:#ffffff" />
  <path
     d="m128 56v-16c0-17.671875 14.328125-32 32-32s32 14.328125 32 32v16h27.671875c11.730469 0 21.746094 8.484375 23.671875 20.054688l4.65625 27.945312h-176l4.65625-27.945312c1.925781-11.570313 11.941406-20.054688 23.671875-20.054688zm0 0"
     fill="#ffc24f"
     id="path6"
     style="fill:#f9f9f9" />
  <path
     d="m152 32h16v16h-16zm0 0"
     fill="#ffa230"
     id="path8" />
  <path
     d="m40 388v20h240v-260zm0 0"
     fill="#3e8cc7"
     id="path10"
     style="fill:#ffffff" />
  <g
     fill="#126099"
     id="g34">
    <path
       d="m114.34375 138.34375-16.0625 16.054688c-3.203125-1.5625-6.71875-2.382813-10.28125-2.398438-13.253906 0-24 10.746094-24 24s10.746094 24 24 24 24-10.746094 24-24c-.015625-3.5625-.835938-7.078125-2.398438-10.28125l16.0625-16.0625zm-26.34375 45.65625c-3.234375 0-6.152344-1.949219-7.390625-4.9375s-.550781-6.429688 1.734375-8.71875l11.3125 11.3125c-1.5 1.5-3.535156 2.34375-5.65625 2.34375zm0 0"
       id="path12" />
    <path
       d="m128 152h32v16h-32zm0 0"
       id="path14" />
    <path
       d="m176 152h56v16h-56zm0 0"
       id="path16" />
    <path
       d="m128 184h112v16h-112zm0 0"
       id="path18" />
    <path
       d="m88 232c-13.253906 0-24 10.746094-24 24s10.746094 24 24 24 24-10.746094 24-24-10.746094-24-24-24zm0 32c-4.417969 0-8-3.582031-8-8s3.582031-8 8-8 8 3.582031 8 8-3.582031 8-8 8zm0 0"
       id="path20" />
    <path
       d="m128 232h16v16h-16zm0 0"
       id="path22" />
    <path
       d="m160 232h56v16h-56zm0 0"
       id="path24"
       style="fill:#000000" />
    <path
       d="m128 264h56v16h-56zm0 0"
       id="path26"
       style="fill:#1a1a1a" />
    <path
       d="m88 312c-13.253906 0-24 10.746094-24 24s10.746094 24 24 24 24-10.746094 24-24-10.746094-24-24-24zm0 32c-4.417969 0-8-3.582031-8-8s3.582031-8 8-8 8 3.582031 8 8-3.582031 8-8 8zm0 0"
       id="path28" />
    <path
       d="m128 312h32v16h-32zm0 0"
       id="path30"
       style="fill:#000000" />
    <path
       d="m128 344h24v16h-24zm0 0"
       id="path32" />
  </g>
  <path
     d="m296 216c79.527344 0 144 64.472656 144 144v48h-288v-48c0-79.527344 64.472656-144 144-144zm0 0"
     fill="#ffb638"
     id="path36"
     style="fill:#e6e6e6" />
  <path
     d="m453.792969 450.871094-110.089844 17.386718c-15.777344 2.492188-31.726563 3.746094-47.703125 3.742188-15.976562.003906-31.925781-1.25-47.703125-3.742188l-110.089844-17.386718c-10.464843-1.664063-18.175781-10.675782-18.207031-21.269532 0-11.929687 9.671875-21.601562 21.601562-21.601562h308.796876c11.929687 0 21.601562 9.671875 21.601562 21.601562-.03125 10.59375-7.742188 19.605469-18.207031 21.269532zm0 0"
     fill="#ffb638"
     id="path38"
     style="fill:#cccccc" />
  <path
     d="m440 360c-.007812-46.8125-22.8125-90.691406-61.121094-117.601562-27.453125 83.433593-86.710937 134.53125-146.621094 165.601562h207.742188zm0 0"
     fill="#fca935"
     id="path40"
     style="fill:#e6e6e6" />
  <path
     d="m232 352c-4.417969 0-8-3.582031-8-8v-112c0-4.417969 3.582031-8 8-8s8 3.582031 8 8v112c0 4.417969-3.582031 8-8 8zm0 0"
     fill="#ffa230"
     id="path42" />
  <path
     d="m360 352c-4.417969 0-8-3.582031-8-8v-112c0-4.417969 3.582031-8 8-8s8 3.582031 8 8v112c0 4.417969-3.582031 8-8 8zm0 0"
     fill="#ffa230"
     id="path44" />
  <path
     d="m296 192c17.671875 0 32 14.328125 32 32v104c0 17.671875-14.328125 32-32 32s-32-14.328125-32-32v-104c0-17.671875 14.328125-32 32-32zm0 0"
     fill="#ffc24f"
     id="path46"
     style="fill:#e6e6e6" />
  <path
     d="m32 448h64v-16h-64c-8.835938 0-16-7.164062-16-16v-336c0-8.835938 7.164062-16 16-16h40.59375c-1.90625 3.324219-3.199219 6.964844-3.824219 10.742188l-.882812 5.257812h-27.886719c-4.417969 0-8 3.582031-8 8v320c0 4.417969 3.582031 8 8 8h56v-16h-48v-304h17.222656l-1.109375 6.6875c-.386719 2.320312.265625 4.691406 1.785157 6.484375 1.519531 1.792969 3.75 2.828125 6.101562 2.828125h176c2.351562 0 4.582031-1.035156 6.101562-2.828125 1.519532-1.792969 2.171876-4.164063 1.785157-6.484375l-1.109375-6.6875h17.222656v72h16v-80c0-4.417969-3.582031-8-8-8h-27.886719l-.882812-5.257812c-.625-3.777344-1.917969-7.417969-3.824219-10.742188h40.59375c8.835938 0 16 7.164062 16 16v88h16v-88c0-17.671875-14.328125-32-32-32h-88v-8c0-22.089844-17.910156-40-40-40s-40 17.910156-40 40v8h-88c-17.671875 0-32 14.328125-32 32v336c0 17.671875 14.328125 32 32 32zm52.542969-370.632812c1.289062-7.71875 7.96875-13.371094 15.792969-13.367188h27.664062c4.417969 0 8-3.582031 8-8v-16c0-13.253906 10.746094-24 24-24s24 10.746094 24 24v16c0 4.417969 3.582031 8 8 8h27.664062c7.824219-.003906 14.503907 5.648438 15.792969 13.367188l3.101563 18.632812h-157.117188zm0 0"
     id="path48"
     style="fill:#1a1a1a" />
  <path
     d="m152 32h16v16h-16zm0 0"
     id="path50" />
  <path
     d="m114.34375 138.34375-16.0625 16.054688c-3.203125-1.5625-6.71875-2.382813-10.28125-2.398438-13.253906 0-24 10.746094-24 24s10.746094 24 24 24 24-10.746094 24-24c-.015625-3.5625-.835938-7.078125-2.398438-10.28125l16.0625-16.0625zm-26.34375 45.65625c-3.234375 0-6.152344-1.949219-7.390625-4.9375s-.550781-6.429688 1.734375-8.71875l11.3125 11.3125c-1.5 1.5-3.535156 2.34375-5.65625 2.34375zm0 0"
     id="path52" />
  <path
     d="m128 152h32v16h-32zm0 0"
     id="path54" />
  <path
     d="m176 152h56v16h-56zm0 0"
     id="path56" />
  <path
     d="m128 184h112v16h-112zm0 0"
     id="path58" />
  <path
     d="m88 232c-13.253906 0-24 10.746094-24 24s10.746094 24 24 24 24-10.746094 24-24-10.746094-24-24-24zm0 32c-4.417969 0-8-3.582031-8-8s3.582031-8 8-8 8 3.582031 8 8-3.582031 8-8 8zm0 0"
     id="path60" />
  <path
     d="m128 232h16v16h-16zm0 0"
     id="path62" />
  <path
     d="m160 232h16v16h-16zm0 0"
     id="path64" />
  <path
     d="m128 264h24v16h-24zm0 0"
     id="path66" />
  <path
     d="m88 312c-13.253906 0-24 10.746094-24 24s10.746094 24 24 24 24-10.746094 24-24-10.746094-24-24-24zm0 32c-4.417969 0-8-3.582031-8-8s3.582031-8 8-8 8 3.582031 8 8-3.582031 8-8 8zm0 0"
     id="path68" />
  <path
     d="m128 312h16v16h-16zm0 0"
     id="path70" />
  <path
     d="m450.398438 400h-2.398438v-40c.304688-69.292969-46.585938-129.902344-113.734375-147.007812-4.816406-17.148438-20.453125-29-38.265625-29s-33.449219 11.851562-38.265625 29c-61.386719 15.640624-106.460937 67.976562-112.824219 131.007812h-16.910156v16h16v40h-2.398438c-15.308593.191406-27.945312 12.023438-29.140624 27.285156-1.195313 15.261719 9.441406 28.917969 24.53125 31.492188l110.054687 17.382812c32.433594 5.121094 65.472656 5.121094 97.90625 0l110.085937-17.382812c15.097657-2.578125 25.734376-16.242188 24.527344-31.507813-1.203125-15.265625-13.855468-27.09375-29.167968-27.269531zm-178.398438-176c0-13.253906 10.746094-24 24-24s24 10.746094 24 24v128h-48zm-112 136c-.207031-47.019531 24.03125-90.765625 64-115.527344v107.527344h16v-115.9375c5.203125-2.34375 10.546875-4.359375 16-6.03125v129.96875c0 4.417969 3.582031 8 8 8h64c4.417969 0 8-3.582031 8-8v-129.96875c5.453125 1.671875 10.796875 3.6875 16 6.03125v115.9375h16v-107.527344c39.96875 24.761719 64.207031 68.507813 64 115.527344v40h-272zm292.542969 82.976562-110.078125 17.382813c-30.789063 4.824219-62.140625 4.824219-92.929688 0l-110.078125-17.382813c-6.867187-1.253906-11.671875-7.5-11.117187-14.457031.550781-6.957031 6.28125-12.367187 13.261718-12.519531h308.796876c6.972656.167969 12.691406 5.582031 13.234374 12.535156.546876 6.953125-4.257812 13.191406-11.121093 14.441406zm0 0"
     id="path72" />
</svg>
